<svg width="980" height="501" viewBox="0 0 980 501" fill="none" xmlns="http://www.w3.org/2000/svg">
<path d="M888 16C888 7.16344 895.163 0 904 0H964C972.837 0 980 7.16344 980 16V127C980 135.837 972.837 143 964 143H904C895.163 143 888 135.837 888 127V16Z" fill="#8A3202"/>
<path d="M919 287C952.689 287 980 314.311 980 348V501H848V348C848 314.311 875.311 287 909 287H919Z" fill="#B5ADFF"/>
<path d="M134.717 362C40.6694 288.75 -97.4595 127.333 102.405 67.6688C302.27 8.00456 207.224 239.03 134.717 362Z" fill="#12D512"/>
</svg>
